<svg class="diagram-root" style="background: #f5f6f6" xmlns="http://www.w3.org/2000/svg" xmlns:xlink="http://www.w3.org/1999/xlink"><style>.diagram-root { font-family: "Helvetica Neue", sans-serif; font-size: 12px; } .t { overflow: visible; } .t-bg { y: 40; fill: #fff;   } .th { fill: #005aa0;   } .tht { fill: #fff; font-size: 14px;  } .tf { fill: #323c46; overflow: visible; } .tf.pk { fill: #005aa0; font-weight: bold; } .tf.fk { font-weight: bold; } .ty { fill: #adb1b5; font-weight: normal; text-anchor: end; } .r { fill: transparent; stroke: #c3c3c3; stroke-width: 1; } .l { stroke: 1; } .i { fill: #c2c7ce; stroke: #c2c7ce; } .i.ix { fill: #afb3b6; stroke: #000; } .fa { fill: transparent; overflow: visible; } .fa .bg.hover { fill: #f7f7f7; } .c { cy: 12; r: 4; stroke: #d2d2dc; fill: #d2d2dc; } .hr { fill: transparent; stroke: #323c46; stroke-opacity: 0.035; stroke-width: 13; } .dc { stroke: #fa5a3c; fill: #fa5a3c; } .x { stroke: white; stroke-width: 1; } .hl .th { fill: #1b9bff; } .hl .tht {  } .fhl .bg { fill: #e7f4ff; } .fhls .bg {  } .r.hl { stroke: #1b9bff; } .dim { opacity: 0.25; }</style><g class="drawing-wrapper" transform="translate(294.702857142857, 168.88888888888897) scale(1,1)"><g class="rs"><path d="M 327.95 290.33000000000004 m -1, 0 a 1,1 0 1,0 2,0 a 1,1 0 1,0 -2,0 M 327.95 290.33000000000004 m -0.5, 0 a 0.5,0.5 0 1,0 1,0 a 0.5,0.5 0 1,0 -1,0  M327.95 290.33000000000004 L327.95 290.33000000000004 339.95 290.33000000000004 M 327.95 296.33000000000004 m -1, 0 a 1,1 0 1,0 2,0 a 1,1 0 1,0 -2,0 M 327.95 296.33000000000004 m -0.5, 0 a 0.5,0.5 0 1,0 1,0 a 0.5,0.5 0 1,0 -1,0  M327.95 296.33000000000004 L327.95 296.33000000000004 334.95 290.33000000000004 327.95 284.33000000000004 M 327.95 284.33000000000004 m -1, 0 a 1,1 0 1,0 2,0 a 1,1 0 1,0 -2,0 M 327.95 284.33000000000004 m -0.5, 0 a 0.5,0.5 0 1,0 1,0 a 0.5,0.5 0 1,0 -1,0  M339.95 290.33000000000004 Q 433.1 290.33000000000004, 526.24 172.08 T 712.5271428571449 53.824285714285715 M 724.5271428571449 53.824285714285715 m -1, 0 a 1,1 0 1,0 2,0 a 1,1 0 1,0 -2,0 M 724.5271428571449 53.824285714285715 m -0.5, 0 a 0.5,0.5 0 1,0 1,0 a 0.5,0.5 0 1,0 -1,0  M724.5271428571449 53.824285714285715 L724.5271428571449 53.824285714285715 712.5271428571449 53.824285714285715 M 724.5271428571449 59.824285714285715 m -1, 0 a 1,1 0 1,0 2,0 a 1,1 0 1,0 -2,0 M 724.5271428571449 59.824285714285715 m -0.5, 0 a 0.5,0.5 0 1,0 1,0 a 0.5,0.5 0 1,0 -1,0  M724.5271428571449 59.824285714285715 L724.5271428571449 59.824285714285715 717.5271428571449 53.824285714285715 724.5271428571449 47.824285714285715 M 724.5271428571449 47.824285714285715 m -1, 0 a 1,1 0 1,0 2,0 a 1,1 0 1,0 -2,0 M 724.5271428571449 47.824285714285715 m -0.5, 0 a 0.5,0.5 0 1,0 1,0 a 0.5,0.5 0 1,0 -1,0 " id="h1139284389" class="r"></path><path d="M 180.56 315.33000000000004 m -1, 0 a 1,1 0 1,0 2,0 a 1,1 0 1,0 -2,0 M 180.56 315.33000000000004 m -0.5, 0 a 0.5,0.5 0 1,0 1,0 a 0.5,0.5 0 1,0 -1,0  M180.56 315.33000000000004 L180.56 315.33000000000004 168.56 315.33000000000004 M 180.56 321.33000000000004 m -1, 0 a 1,1 0 1,0 2,0 a 1,1 0 1,0 -2,0 M 180.56 321.33000000000004 m -0.5, 0 a 0.5,0.5 0 1,0 1,0 a 0.5,0.5 0 1,0 -1,0  M180.56 321.33000000000004 L180.56 321.33000000000004 173.56 315.33000000000004 180.56 309.33000000000004 M 180.56 309.33000000000004 m -1, 0 a 1,1 0 1,0 2,0 a 1,1 0 1,0 -2,0 M 180.56 309.33000000000004 m -0.5, 0 a 0.5,0.5 0 1,0 1,0 a 0.5,0.5 0 1,0 -1,0  M168.56 315.33000000000004 Q 103.1 315.33000000000004, 37.63 179.66 T -93.3 43.98857142857132 M -105.3 43.98857142857132 m -1, 0 a 1,1 0 1,0 2,0 a 1,1 0 1,0 -2,0 M -105.3 43.98857142857132 m -0.5, 0 a 0.5,0.5 0 1,0 1,0 a 0.5,0.5 0 1,0 -1,0  M-105.3 43.98857142857132 L-105.3 43.98857142857132 -93.3 43.98857142857132 M -105.3 49.98857142857132 m -1, 0 a 1,1 0 1,0 2,0 a 1,1 0 1,0 -2,0 M -105.3 49.98857142857132 m -0.5, 0 a 0.5,0.5 0 1,0 1,0 a 0.5,0.5 0 1,0 -1,0  M-105.3 49.98857142857132 L-105.3 49.98857142857132 -98.3 43.98857142857132 -105.3 37.98857142857132 M -105.3 37.98857142857132 m -1, 0 a 1,1 0 1,0 2,0 a 1,1 0 1,0 -2,0 M -105.3 37.98857142857132 m -0.5, 0 a 0.5,0.5 0 1,0 1,0 a 0.5,0.5 0 1,0 -1,0 " id="h1607168654" class="r"></path><path d="M 305.56 -81.88999999999999 m -1, 0 a 1,1 0 1,0 2,0 a 1,1 0 1,0 -2,0 M 305.56 -81.88999999999999 m -0.5, 0 a 0.5,0.5 0 1,0 1,0 a 0.5,0.5 0 1,0 -1,0  M305.56 -81.88999999999999 L305.56 -81.88999999999999 293.56 -81.88999999999999 M 305.56 -75.88999999999999 m -1, 0 a 1,1 0 1,0 2,0 a 1,1 0 1,0 -2,0 M 305.56 -75.88999999999999 m -0.5, 0 a 0.5,0.5 0 1,0 1,0 a 0.5,0.5 0 1,0 -1,0  M305.56 -75.88999999999999 L305.56 -75.88999999999999 298.56 -81.88999999999999 305.56 -87.88999999999999 M 305.56 -87.88999999999999 m -1, 0 a 1,1 0 1,0 2,0 a 1,1 0 1,0 -2,0 M 305.56 -87.88999999999999 m -0.5, 0 a 0.5,0.5 0 1,0 1,0 a 0.5,0.5 0 1,0 -1,0  M293.56 -81.88999999999999 Q 196.85 -81.88999999999999, 100.13 -18.95 T -93.3 43.98857142857132 M -105.3 43.98857142857132 m -1, 0 a 1,1 0 1,0 2,0 a 1,1 0 1,0 -2,0 M -105.3 43.98857142857132 m -0.5, 0 a 0.5,0.5 0 1,0 1,0 a 0.5,0.5 0 1,0 -1,0  M-105.3 43.98857142857132 L-105.3 43.98857142857132 -93.3 43.98857142857132 M-99.3 49.98857142857132 L-99.3 49.98857142857132 -99.3 37.98857142857132" id="h1397587031" class="r"></path><path d="M 432.95 -56.889999999999986 m -1, 0 a 1,1 0 1,0 2,0 a 1,1 0 1,0 -2,0 M 432.95 -56.889999999999986 m -0.5, 0 a 0.5,0.5 0 1,0 1,0 a 0.5,0.5 0 1,0 -1,0  M432.95 -56.889999999999986 L432.95 -56.889999999999986 444.95 -56.889999999999986 M438.95 -50.889999999999986 L438.95 -50.889999999999986 438.95 -62.889999999999986 M444.95 -56.889999999999986 Q 511.85 -56.889999999999986, 578.74 -1.53 T 712.5271428571449 53.824285714285715 M 724.5271428571449 53.824285714285715 m -1, 0 a 1,1 0 1,0 2,0 a 1,1 0 1,0 -2,0 M 724.5271428571449 53.824285714285715 m -0.5, 0 a 0.5,0.5 0 1,0 1,0 a 0.5,0.5 0 1,0 -1,0  M724.5271428571449 53.824285714285715 L724.5271428571449 53.824285714285715 712.5271428571449 53.824285714285715 M718.5271428571449 59.824285714285715 L718.5271428571449 59.824285714285715 718.5271428571449 47.824285714285715" id="h2286254435" class="r"></path><path d="M 724.5271428571449 78.82428571428571 m -1, 0 a 1,1 0 1,0 2,0 a 1,1 0 1,0 -2,0 M 724.5271428571449 78.82428571428571 m -0.5, 0 a 0.5,0.5 0 1,0 1,0 a 0.5,0.5 0 1,0 -1,0  M724.5271428571449 78.82428571428571 L724.5271428571449 78.82428571428571 712.5271428571449 78.82428571428571 M 724.5271428571449 84.82428571428571 m -1, 0 a 1,1 0 1,0 2,0 a 1,1 0 1,0 -2,0 M 724.5271428571449 84.82428571428571 m -0.5, 0 a 0.5,0.5 0 1,0 1,0 a 0.5,0.5 0 1,0 -1,0  M724.5271428571449 84.82428571428571 L724.5271428571449 84.82428571428571 717.5271428571449 78.82428571428571 724.5271428571449 72.82428571428571 M 724.5271428571449 72.82428571428571 m -1, 0 a 1,1 0 1,0 2,0 a 1,1 0 1,0 -2,0 M 724.5271428571449 72.82428571428571 m -0.5, 0 a 0.5,0.5 0 1,0 1,0 a 0.5,0.5 0 1,0 -1,0  M712.5271428571449 78.82428571428571 C 491.8551428571417 78.82428571428571, 555.8571428571429 348.42857142857144, 605.8571428571429 348.42857142857144 M 617.8571428571429 348.42857142857144 m -1, 0 a 1,1 0 1,0 2,0 a 1,1 0 1,0 -2,0 M 617.8571428571429 348.42857142857144 m -0.5, 0 a 0.5,0.5 0 1,0 1,0 a 0.5,0.5 0 1,0 -1,0  M617.8571428571429 348.42857142857144 L617.8571428571429 348.42857142857144 605.8571428571429 348.42857142857144 M 617.8571428571429 354.42857142857144 m -1, 0 a 1,1 0 1,0 2,0 a 1,1 0 1,0 -2,0 M 617.8571428571429 354.42857142857144 m -0.5, 0 a 0.5,0.5 0 1,0 1,0 a 0.5,0.5 0 1,0 -1,0  M617.8571428571429 354.42857142857144 L617.8571428571429 354.42857142857144 610.8571428571429 348.42857142857144 617.8571428571429 342.42857142857144 M 617.8571428571429 342.42857142857144 m -1, 0 a 1,1 0 1,0 2,0 a 1,1 0 1,0 -2,0 M 617.8571428571429 342.42857142857144 m -0.5, 0 a 0.5,0.5 0 1,0 1,0 a 0.5,0.5 0 1,0 -1,0 " id="h1537058300" class="r"></path><path d="M 152.04 87 m -1, 0 a 1,1 0 1,0 2,0 a 1,1 0 1,0 -2,0 M 152.04 87 m -0.5, 0 a 0.5,0.5 0 1,0 1,0 a 0.5,0.5 0 1,0 -1,0  M152.04 87 L152.04 87 164.04 87 M158.04 93 L158.04 93 158.04 81 M164.04 87 Q 301.16 87, 438.28 70.41 T 712.5271428571449 53.824285714285715 M 724.5271428571449 53.824285714285715 m -1, 0 a 1,1 0 1,0 2,0 a 1,1 0 1,0 -2,0 M 724.5271428571449 53.824285714285715 m -0.5, 0 a 0.5,0.5 0 1,0 1,0 a 0.5,0.5 0 1,0 -1,0  M724.5271428571449 53.824285714285715 L724.5271428571449 53.824285714285715 712.5271428571449 53.824285714285715 M718.5271428571449 59.824285714285715 L718.5271428571449 59.824285714285715 718.5271428571449 47.824285714285715" id="h3177548053" class="r"></path></g><g class="hrs"></g><g class="ts"><svg width="147.39" height="100" x="180.56" y="233.33" id="h1090417462" class="t"><rect height="40" width="147.39" class="th"></rect><text x="13" y="25" class="tht">dept_emp</text><rect height="60" width="147.39" class="t-bg" y="40"></rect><text x="13" y="61" class="tf pk">emp_no<tspan x="134.39" class="ty">int</tspan></text><path d="M7,14A2,2 0 0,1 5,12A2,2 0 0,1 7,10A2,2 0 0,1 9,12A2,2 0 0,1 7,14M12.65,10C11.83,7.67 9.61,6 7, 6A6, 6 0 0, 0 1, 12A6, 6 0 0, 0 7, 18C9.61, 18 11.83, 16.33 12.65, 14H17V18H21V14H23V10H12.65Z" class="i pk" transform="translate(101.71617187499999, 48) scale(0.65)"></path><text x="13" y="86" class="tf pk">dept_no<tspan x="134.39" class="ty">char(4)</tspan></text><path d="M7,14A2,2 0 0,1 5,12A2,2 0 0,1 7,10A2,2 0 0,1 9,12A2,2 0 0,1 7,14M12.65,10C11.83,7.67 9.61,6 7, 6A6, 6 0 0, 0 1, 12A6, 6 0 0, 0 7, 18C9.61, 18 11.83, 16.33 12.65, 14H17V18H21V14H23V10H12.65Z" class="i pk" transform="translate(76.38023437499999, 73) scale(0.65)"></path></svg><svg width="127.39" height="100" x="305.56" y="-138.89" id="h1676682957" class="t"><rect height="40" width="127.39" class="th"></rect><text x="13" y="25" class="tht">dept_manager</text><rect height="60" width="127.39" class="t-bg" y="40"></rect><text x="13" y="61" class="tf fk">dept_no<tspan x="114.39" class="ty">char(4)</tspan></text><text x="13" y="86" class="tf pk">emp_no<tspan x="114.39" class="ty">int</tspan></text><path d="M7,14A2,2 0 0,1 5,12A2,2 0 0,1 7,10A2,2 0 0,1 9,12A2,2 0 0,1 7,14M12.65,10C11.83,7.67 9.61,6 7, 6A6, 6 0 0, 0 1, 12A6, 6 0 0, 0 7, 18C9.61, 18 11.83, 16.33 12.65, 14H17V18H21V14H23V10H12.65Z" class="i pk" transform="translate(81.716171875, 73) scale(0.65)"></path></svg><svg width="122.04" height="100" x="30" y="30" id="h2472833127" class="t"><rect height="40" width="122.04" class="th"></rect><text x="13" y="25" class="tht">salaries</text><rect height="60" width="122.04" class="t-bg" y="40"></rect><text x="13" y="61" class="tf pk">emp_no<tspan x="109.04" class="ty">int</tspan></text><path d="M7,14A2,2 0 0,1 5,12A2,2 0 0,1 7,10A2,2 0 0,1 9,12A2,2 0 0,1 7,14M12.65,10C11.83,7.67 9.61,6 7, 6A6, 6 0 0, 0 1, 12A6, 6 0 0, 0 7, 18C9.61, 18 11.83, 16.33 12.65, 14H17V18H21V14H23V10H12.65Z" class="i pk" transform="translate(76.366171875, 48) scale(0.65)"></path><text x="13" y="86" class="tf">salary<tspan x="109.04" class="ty">char(5)</tspan></text></svg><svg width="167.4" height="100" x="-272.702857142857" y="-13.011428571428677" id="h475896179" class="t"><rect height="40" width="167.4" class="th"></rect><text x="13" y="25" class="tht">departments</text><rect height="60" width="167.4" class="t-bg" y="40"></rect><text x="13" y="61" class="tf pk">dept_no<tspan x="154.4" class="ty">char(4)</tspan></text><path d="M7,14A2,2 0 0,1 5,12A2,2 0 0,1 7,10A2,2 0 0,1 9,12A2,2 0 0,1 7,14M12.65,10C11.83,7.67 9.61,6 7, 6A6, 6 0 0, 0 1, 12A6, 6 0 0, 0 7, 18C9.61, 18 11.83, 16.33 12.65, 14H17V18H21V14H23V10H12.65Z" class="i pk" transform="translate(96.390234375, 48) scale(0.65)"></path><text x="13" y="86" class="tf">dept_name<tspan x="154.4" class="ty">varchar(20)</tspan></text></svg><svg width="163.38" height="225" x="724.5271428571449" y="-3.1757142857142844" id="h1639608377" class="t"><rect height="40" width="163.38" class="th"></rect><text x="13" y="25" class="tht">employees</text><rect height="185" width="163.38" class="t-bg" y="40"></rect><text x="13" y="61" class="tf pk">emp_no<tspan x="150.38" class="ty">int</tspan></text><path d="M7,14A2,2 0 0,1 5,12A2,2 0 0,1 7,10A2,2 0 0,1 9,12A2,2 0 0,1 7,14M12.65,10C11.83,7.67 9.61,6 7, 6A6, 6 0 0, 0 1, 12A6, 6 0 0, 0 7, 18C9.61, 18 11.83, 16.33 12.65, 14H17V18H21V14H23V10H12.65Z" class="i pk" transform="translate(117.706171875, 48) scale(0.65)"></path><text x="13" y="86" class="tf fk">emp_title_id<tspan x="150.38" class="ty">char(5)</tspan></text><text x="13" y="111" class="tf">birth_date<tspan x="150.38" class="ty">date</tspan></text><text x="13" y="136" class="tf">first_name<tspan x="150.38" class="ty">varchar(20)</tspan></text><text x="13" y="161" class="tf">last_name<tspan x="150.38" class="ty">varchar(20)</tspan></text><text x="13" y="186" class="tf">sex<tspan x="150.38" class="ty">char(1)</tspan></text><text x="13" y="211" class="tf">hire_date<tspan x="150.38" class="ty">date</tspan></text></svg><svg width="138.7" height="100" x="617.8571428571429" y="291.42857142857144" id="h311790747" class="t"><rect height="40" width="138.7" class="th"></rect><text x="13" y="25" class="tht">titles</text><rect height="60" width="138.7" class="t-bg" y="40"></rect><text x="13" y="61" class="tf pk">title_id<tspan x="125.69999999999999" class="ty">char(5)</tspan></text><path d="M7,14A2,2 0 0,1 5,12A2,2 0 0,1 7,10A2,2 0 0,1 9,12A2,2 0 0,1 7,14M12.65,10C11.83,7.67 9.61,6 7, 6A6, 6 0 0, 0 1, 12A6, 6 0 0, 0 7, 18C9.61, 18 11.83, 16.33 12.65, 14H17V18H21V14H23V10H12.65Z" class="i pk" transform="translate(67.69023437499999, 48) scale(0.65)"></path><text x="13" y="86" class="tf">title<tspan x="125.69999999999999" class="ty">varchar(25)</tspan></text></svg></g></g><text class="qdbd-link" x="10" y="20">www.quickdatabasediagrams.com</text></svg>